{"title":"Stormy Monday 1988 BRRip XviD AC3 titler","uid":8786214,"size":986363608,"categoryP":"video","categoryS":"movies","magnet":"?xt=urn:btih:fee179be8da9b3f99a06ebda6f7bfdfe6336c476&amp;dn=Stormy+Monday+1988+BRRip+XviD+AC3+titler&amp;tr=udp%3A%2F%2Ftracker.openbittorrent.com%3A80&amp;tr=udp%3A%2F%2Fopen.demonii.com%3A1337&amp;tr=udp%3A%2F%2Ftracker.coppersurfer.tk%3A6969&amp;tr=udp%3A%2F%2Fexodus.desync.com%3A6969","seeders":0,"leechers":1,"uploader":"movieZ.freak","files":4,"time":1375834516,"description":"SOURCE: Stormy Monday 1988 720p BluRay\n\n &lt;a href=&quot;\nhttp://www.imdb.com/title/tt0096180/&quot; rel=&quot;nofollow&quot; target=&quot;_NEW&quot;&gt;\nhttp://www.imdb.com/title/tt0096180/&lt;/a&gt;\n\n &lt;a href=&quot;\nhttp://www.rottentomatoes.com/m/stormy_monday/&quot; rel=&quot;nofollow&quot; target=&quot;_NEW&quot;&gt;\nhttp://www.rottentomatoes.com/m/stormy_monday/&lt;/a&gt;\n\n\n\n- SAMPLE: Yes\n\n- SUBTITLE: English\n\n- LANGUAGE: English\n\n\n\nSCREESHOTS:\n---------------------- &lt;a href=&quot;\nhttp://someimage.com/oAqd&quot; rel=&quot;nofollow&quot; target=&quot;_NEW&quot;&gt;\nhttp://someimage.com/oAqd&lt;/a&gt;\n\n\n\nDIRECTOR: Mike Figgis\n\n\n\nCAST: Melanie Griffith, Tommy Lee Jones, Sting, Sean Bean, James Cosmo\n\n\n\nPLOT:\n--------\nStormy Monday is a four-person character study in which style is all that matters. This tautly constructed, deftly executed crime thriller is set in economically depressed Newcastle England. Sting plays Finney, a relatively honest Newcastle jazz-club owner who crosses the path of crass American gangster Cosmo (Tommy Lee Jones). Flaunting his wealth at every opportunity, Cosmo wants to involve Finney in a land development deal -- if only he'll give up his club. Both men are enamored of Kate (Melanie Griffith), who becomes a pawn in their ongoing one-upsmanship. Kate and her lover (Sean Bean) try to prevent Finney from corrupting his own sense of values by wallowing in the gutter with Cosmo. Stormy Monday, the first feature-length directorial effort of former jazz musician Mike Figgis, who also wrote the script and composed the score, tells its story using subtle shadings of character and a vivid evocation of its Newcastle setting rather than through violent action. Figgis's moody direction of his excellent screenplay is quietly effective and brimming with visual nuance and irony, particularly in its perceptive take on love, money, jazz, and economic necessity.\n\n\nGeneral\n-------------\nFormat : AVI\nFormat/Info : Audio Video Interleave\nFile size : 908 MiB\nDuration : 1h 32mn\nOverall bit rate : 1368 Kbps\nWriting library : VirtualDub build 32842/release\n\nVideo\n--------------\nFormat : MPEG-4 Visual\nFormat profile : Advanced Simple@L5\nFormat settings, BVOP : 2\nFormat settings, QPel : No\nFormat settings, GMC : No warppoints\nFormat settings, Matrix : Default (H.263)\nCodec ID : XVID\nCodec ID/Hint : XviD\nDuration : 1h 32mn\nBit rate : 1102 Kbps\nWidth : 640 pixels\nHeight : 360 pixels\nDisplay aspect ratio : 16:9\nFrame rate : 24.000 fps\nColor space : YUV\nChroma subsampling : 4:2:0\nBit depth : 8 bits\nScan type : Progressive\nCompression mode : Lossy\nBits/(Pixel*Frame) : 0.199\nStream size : 732 MiB (81%)\nWriting library : XviD 64\n\nAudio\n---------\nFormat : AC-3\nFormat/Info : Audio Coding 3\nMode extension : CM (complete main)\nFormat settings, Endianness : Big\nCodec ID : 2000\nDuration : 1h 32mn\nBit rate mode : Constant\nBit rate : 256 Kbps\nChannel(s) : 2 channels\nChannel positions : Front: L R\nSampling rate : 48.0 KHz\nBit depth : 16 bits\nCompression mode : Lossy\nStream size : 170 MiB (19%)\nAlignment : Aligned on interleaves\nInterleave, duration : 42 ms (1.00 video frame)\nInterleave, preload duration : 512 ms\n","torrent":{"xt":"urn:btih:fee179be8da9b3f99a06ebda6f7bfdfe6336c476","amp;dn":"Stormy+Monday+1988+BRRip+XviD+AC3+titler","amp;tr":["udp%3A%2F%2Ftracker.openbittorrent.com%3A80","udp%3A%2F%2Fopen.demonii.com%3A1337","udp%3A%2F%2Ftracker.coppersurfer.tk%3A6969","udp%3A%2F%2Fexodus.desync.com%3A6969"],"infoHash":"fee179be8da9b3f99a06ebda6f7bfdfe6336c476","infoHashBuffer":{"type":"Buffer","data":[254,225,121,190,141,169,179,249,154,6,235,218,111,123,253,254,99,54,196,118]},"announce":[],"urlList":[]}}